<svg width="1200" height="900" viewBox="0 0 1200 900" fill="none" xmlns="http://www.w3.org/2000/svg">
  <rect width="1200" height="900" fill="#F3F4F5"/>
  <rect x="72" y="72" width="1056" height="756" rx="28" fill="url(#paint0_linear_1_2)"/>
  <circle cx="806" cy="360" r="188" fill="#E8BCB8" fill-opacity="0.55"/>
  <path d="M738 510C738 420.53 810.53 348 900 348V348C989.47 348 1062 420.53 1062 510V738H738V510Z" fill="#405C9E"/>
  <rect x="146" y="174" width="396" height="26" rx="13" fill="white" fill-opacity="0.9"/>
  <rect x="146" y="226" width="300" height="78" rx="20" fill="white" fill-opacity="0.96"/>
  <rect x="146" y="332" width="478" height="20" rx="10" fill="white" fill-opacity="0.78"/>
  <rect x="146" y="372" width="442" height="20" rx="10" fill="white" fill-opacity="0.68"/>
  <rect x="146" y="482" width="230" height="68" rx="14" fill="#BE0014"/>
  <rect x="398" y="482" width="190" height="68" rx="14" fill="white" fill-opacity="0.18"/>
  <defs>
    <linearGradient id="paint0_linear_1_2" x1="72" y1="72" x2="1040" y2="780" gradientUnits="userSpaceOnUse">
      <stop stop-color="#E81B23"/>
      <stop offset="1" stop-color="#405C9E"/>
    </linearGradient>
  </defs>
</svg>
